# Blender v2.78 (sub 0) OBJ File: 'cube.blend'
# www.blender.org
o Cube
v 1.000000 -1.000000 -1.000000
v 1.000000 -1.000000 1.000000
v -1.000000 -1.000000 1.000000
v -1.000000 -1.000000 -1.000000
v 1.000000 1.000000 -1.000000
v 1.000000 1.000000 1.000000
v -1.000000 1.000000 1.000000
v -1.000000 1.000000 -1.000000
vt 0.3115 0.6553
vt 0.0010 0.6553
vt 0.3115 0.3447
vt 0.3125 1.0000
vt 0.0000 1.0000
vt 0.0000 0.6880
vt 1.0000 0.6882
vt 1.0000 1.0000
vt 0.6882 0.6882
vt 0.6560 0.6880
vt 0.6560 1.0000
vt 0.3442 1.0000
vt 0.6880 0.6560
vt 0.6880 0.3442
vt 1.0000 0.6560
vt 0.3447 0.3447
vt 0.6553 0.3447
vt 0.6553 0.6553
vt 0.3442 0.6880
vt 0.6882 1.0000
vt 0.3447 0.6553
vt 1.0000 0.3442
vt 0.3125 0.6880
vt 0.0010 0.3447
vn 0.0000 -1.0000 0.0000
vn 0.0000 1.0000 -0.0000
vn 1.0000 0.0000 0.0000
vn -0.0000 0.0000 1.0000
vn -1.0000 -0.0000 -0.0000
vn 0.0000 -0.0000 -1.0000
s off
f 1/1/1 2/2/1 4/3/1
f 5/4/2 8/5/2 7/6/2
f 1/7/3 5/8/3 2/9/3
f 2/10/4 6/11/4 7/12/4
f 3/13/5 7/14/5 4/15/5
f 5/16/6 1/17/6 4/18/6
f 7/12/4 3/19/4 2/10/4
f 2/9/3 5/8/3 6/20/3
f 4/18/6 8/21/6 5/16/6
f 4/15/5 7/14/5 8/22/5
f 7/6/2 6/23/2 5/4/2
f 4/3/1 2/2/1 3/24/1
