# Blender v2.78 (sub 0) OBJ File: ''
# www.blender.org
o Cube
v 1.000000 -1.000000 -1.000000
v 1.000000 -1.000000 1.000000
v -1.000000 -1.000000 1.000000
v -1.000000 -1.000000 -1.000000
v 1.000000 1.000000 -1.000000
v 1.000000 1.000000 1.000000
v -1.000000 1.000000 1.000000
v -1.000000 1.000000 -1.000000
vt 0.3124 0.6561
vt 0.0001 0.3439
vt 0.3124 0.3439
vt 0.3124 0.9999
vt 0.0001 0.6876
vt 0.3124 0.6876
vt 0.9999 0.9999
vt 0.6884 0.6876
vt 0.9999 0.6876
vt 0.9999 0.6561
vt 0.6884 0.3439
vt 0.9999 0.3439
vt 0.6562 0.3439
vt 0.3438 0.6561
vt 0.3438 0.3439
vt 0.3438 0.9999
vt 0.6562 0.6876
vt 0.6562 0.9999
vt 0.0001 0.6561
vt 0.0001 0.9999
vt 0.6884 0.9999
vt 0.6884 0.6561
vt 0.6562 0.6561
vt 0.3438 0.6876
vn 0.0000 -1.0000 0.0000
vn 0.0000 1.0000 0.0000
vn 1.0000 0.0000 0.0000
vn -0.0000 0.0000 1.0000
vn -1.0000 -0.0000 -0.0000
vn 0.0000 0.0000 -1.0000
s off
f 2/1/1 4/2/1 1/3/1
f 5/4/2 7/5/2 6/6/2
f 5/7/3 2/8/3 1/9/3
f 6/10/4 3/11/4 2/12/4
f 3/13/5 8/14/5 4/15/5
f 5/16/6 4/17/6 8/18/6
f 2/1/1 3/19/1 4/2/1
f 5/4/2 8/20/2 7/5/2
f 5/7/3 6/21/3 2/8/3
f 6/10/4 7/22/4 3/11/4
f 3/13/5 7/23/5 8/14/5
f 5/16/6 1/24/6 4/17/6
