# Blender v2.80 (sub 39) OBJ File: ''
# www.blender.org
o Cube.002
v 1.000000 0.000000 1.000000
v -1.000000 0.000000 -1.000000
v 1.000000 0.000000 -1.000000
v -1.000000 2.000000 -1.000000
v 0.999999 2.000000 1.000001
v 1.000000 2.000000 -0.999999
v 1.000000 2.000000 -0.999999
v 1.000000 0.000000 1.000000
v 1.000000 0.000000 -1.000000
v 0.999999 2.000000 1.000001
v -1.000000 0.000000 1.000000
v 1.000000 0.000000 1.000000
v -1.000000 0.000000 1.000000
v -1.000000 2.000000 -1.000000
v -1.000000 0.000000 -1.000000
v 1.000000 0.000000 -1.000000
v -1.000000 2.000000 -1.000000
v 1.000000 2.000000 -0.999999
v -1.000000 0.000000 1.000000
v -1.000000 2.000000 1.000000
v 0.999999 2.000000 1.000001
v -1.000000 2.000000 1.000000
v -1.000000 2.000000 1.000000
v -1.000000 0.000000 -1.000000
vt 0.334500 0.331300
vt 0.664600 0.000500
vt 0.664600 0.331300
vt 0.001000 0.330100
vt 0.330100 0.001000
vt 0.330100 0.330100
vt 0.331800 0.665800
vt 0.000500 0.334500
vt 0.331800 0.334500
vt 0.331500 0.999500
vt 0.000500 0.668500
vt 0.331500 0.668500
vt 0.664600 0.668500
vt 0.334700 0.999500
vt 0.334700 0.668500
vt 0.334700 0.334700
vt 0.664800 0.665800
vt 0.334700 0.665800
vt 0.334500 0.000500
vt 0.001000 0.001000
vt 0.000500 0.665800
vt 0.000500 0.999500
vt 0.664600 0.999500
vt 0.664800 0.334700
vn 0.0000 -1.0000 -0.0000
vn 0.0000 1.0000 -0.0000
vn 1.0000 0.0000 0.0000
vn -0.0000 -0.0000 1.0000
vn -1.0000 0.0000 0.0000
vn 0.0000 0.0000 -1.0000
s 1
f 1/1/1 2/2/1 3/3/1
f 4/4/2 5/5/2 6/6/2
f 7/7/3 8/8/3 9/9/3
f 10/10/4 11/11/4 12/12/4
f 13/13/5 14/14/5 15/15/5
f 16/16/6 17/17/6 18/18/6
f 1/1/1 19/19/1 2/2/1
f 4/4/2 20/20/2 5/5/2
f 7/7/3 21/21/3 8/8/3
f 10/10/4 22/22/4 11/11/4
f 13/13/5 23/23/5 14/14/5
f 16/16/6 24/24/6 17/17/6
